<svg id="Ebene_1" data-name="Ebene 1" xmlns="http://www.w3.org/2000/svg" xmlns:xlink="http://www.w3.org/1999/xlink" viewBox="0 0 1618.03 537.58"><defs><style>.cls-1{fill:url(#Unbenannter_Verlauf_11);}.cls-2{fill:url(#Unbenannter_Verlauf_6);}.cls-3{opacity:0.4;fill:url(#Unbenannter_Verlauf_10);}.cls-4{opacity:0.3;fill:url(#Unbenannter_Verlauf_9);}.cls-5{opacity:0.2;fill:url(#Unbenannter_Verlauf_8);}.cls-6{opacity:0.3;fill:url(#Unbenannter_Verlauf_17);}.cls-7{opacity:0.1;}.cls-8{fill:url(#Unbenannter_Verlauf_21);}.cls-9{fill:url(#Unbenannter_Verlauf_21-2);}.cls-10{fill:url(#Unbenannter_Verlauf_21-3);}.cls-11{opacity:0.01;fill:url(#Unbenannter_Verlauf_27);}.cls-12{fill:url(#Unbenannter_Verlauf_43);}.cls-13{fill:#1b2847;}.cls-14{fill:#7dac46;}</style><linearGradient id="Unbenannter_Verlauf_11" x1="949.41" y1="276.87" x2="949.41" y2="10.28" gradientUnits="userSpaceOnUse"><stop offset="0" stop-color="#516b20"/><stop offset="0.58" stop-color="#7dac46"/></linearGradient><linearGradient id="Unbenannter_Verlauf_6" x1="1373.62" y1="824.17" x2="1621.99" y2="824.17" gradientUnits="userSpaceOnUse"><stop offset="0" stop-color="#516b20"/><stop offset="1" stop-color="#607f2a"/></linearGradient><linearGradient id="Unbenannter_Verlauf_10" x1="882.61" y1="258.99" x2="1015.93" y2="28.08" gradientUnits="userSpaceOnUse"><stop offset="0" stop-color="#516b20"/><stop offset="0.54" stop-color="#7dac46"/></linearGradient><linearGradient id="Unbenannter_Verlauf_9" x1="833.7" y1="210.09" x2="1064.62" y2="76.77" gradientUnits="userSpaceOnUse"><stop offset="0" stop-color="#516b20"/><stop offset="0.5" stop-color="#7dac46"/></linearGradient><linearGradient id="Unbenannter_Verlauf_8" x1="815.83" y1="143.29" x2="1082.42" y2="143.29" gradientUnits="userSpaceOnUse"><stop offset="0" stop-color="#516b20"/><stop offset="0.48" stop-color="#7dac46"/></linearGradient><linearGradient id="Unbenannter_Verlauf_17" x1="949.41" y1="276.87" x2="949.41" y2="10.28" gradientUnits="userSpaceOnUse"><stop offset="0" stop-color="#516b20"/><stop offset="0.3" stop-color="#516b20" stop-opacity="0"/></linearGradient><linearGradient id="Unbenannter_Verlauf_21" x1="1374.62" y1="824.16" x2="1586.86" y2="824.16" gradientUnits="userSpaceOnUse"><stop offset="0"/><stop offset="1" stop-opacity="0"/></linearGradient><linearGradient id="Unbenannter_Verlauf_21-2" x1="1376.47" y1="876.71" x2="1376.55" y2="876.71" xlink:href="#Unbenannter_Verlauf_21"/><linearGradient id="Unbenannter_Verlauf_21-3" x1="1376.25" y1="876.69" x2="1376.47" y2="876.69" xlink:href="#Unbenannter_Verlauf_21"/><linearGradient id="Unbenannter_Verlauf_27" x1="1575.11" y1="578.54" x2="1448.97" y2="743.77" gradientUnits="userSpaceOnUse"><stop offset="0.13"/><stop offset="0.86" stop-opacity="0"/></linearGradient><linearGradient id="Unbenannter_Verlauf_43" x1="1507.36" y1="868.63" x2="1507.36" y2="462.33" gradientUnits="userSpaceOnUse"><stop offset="0" stop-color="#6b9134"/><stop offset="0.73" stop-color="#7dac46"/></linearGradient></defs><circle class="cls-1" cx="949.41" cy="143.29" r="143.29"/><path class="cls-2" d="M1376.55,876.71h237.09a8.35,8.35,0,0,0,8.35-8.35V780a8.35,8.35,0,0,0-8.35-8.36H1468.45a8.51,8.51,0,0,0-2,.25L1380,793.42a8.35,8.35,0,0,0-6.33,8.1v72.26A2.93,2.93,0,0,0,1376.55,876.71Z" transform="translate(-548.39 -451.45)"/><circle class="cls-3" cx="949.41" cy="143.29" r="143.29"/><circle class="cls-4" cx="949.41" cy="143.29" r="143.29"/><circle class="cls-5" cx="949.41" cy="143.29" r="143.29"/><circle class="cls-6" cx="949.41" cy="143.29" r="143.29"/><g class="cls-7"><path class="cls-8" d="M1376.88,875.8c49.14-12.72,150.57-49.49,210-104.17h-136s-76.22,100.9-76.22,102.15c0,1.52.15,2.75,1.63,2.9C1375.71,876.54,1376,876,1376.88,875.8Z" transform="translate(-548.39 -451.45)"/><path class="cls-9" d="M1376.55,876.71h0Z" transform="translate(-548.39 -451.45)"/><path class="cls-10" d="M1376.25,876.68a.72.72,0,0,0,.22,0Z" transform="translate(-548.39 -451.45)"/></g><path class="cls-11" d="M1413.3,710.46A142.65,142.65,0,0,0,1497.8,738c1.72,0,3.42,0,5.12-.1l1.14,0c1.69-.07,3.37-.16,5-.29l.36,0c1.63-.13,3.26-.29,4.87-.48l.77-.09c1.73-.2,3.45-.44,5.15-.71l.26,0q2.63-.42,5.2-.93l.15,0c1.78-.35,3.56-.74,5.32-1.16l.07,0q5.34-1.27,10.52-3h0c23.69-38.32,39.87-88.09,39.87-121.94,0-79.14-42.92-87.74-42.92-87.74l-40.93,49.4C1531.89,570.86,1532,642.39,1413.3,710.46Z" transform="translate(-548.39 -451.45)"/><path class="cls-12" d="M1497.8,451.45V570.86c38.72,0,56.15,76.68-120.89,213.26a8.53,8.53,0,0,0-3.29,6.68v83a2.93,2.93,0,0,0,2.93,2.93h0c-1,0-.88-.84-.2-1.15,2.51-1.17,7.34-3.49,13.92-6.8,158-79.6,250.82-179.2,250.82-274A143.29,143.29,0,0,0,1497.8,451.45Z" transform="translate(-548.39 -451.45)"/><path class="cls-13" d="M1781.05,459.67H1757a80.22,80.22,0,0,0-80.22,80.22v328.8a8,8,0,0,0,8,8h40.11a8,8,0,0,0,8-8V632.15a4,4,0,0,1,4-4h44.12a8,8,0,0,0,8-8V580a8,8,0,0,0-8-8h-44.12a4,4,0,0,1-4-4V539.89A24.07,24.07,0,0,1,1757,515.82h24.07a8,8,0,0,0,8-8V467.69A8,8,0,0,0,1781.05,459.67Z" transform="translate(-548.39 -451.45)"/><rect class="cls-13" x="1272.78" y="8.21" width="56.16" height="417.05" rx="8.02"/><rect class="cls-13" x="1361.05" y="120.53" width="56.16" height="304.73" rx="8.02"/><rect class="cls-14" x="1361.05" y="8.21" width="56.16" height="56.16" rx="8.02"/><path class="cls-13" d="M2100.19,572.05a61.78,61.78,0,0,0-42.62,20.15,2,2,0,0,1-3.46-1.35V580a8,8,0,0,0-8-8H2006a8,8,0,0,0-8,8V981a8,8,0,0,0,8,8h40.11a8,8,0,0,0,8-8V857.85a2,2,0,0,1,3.46-1.35,61.77,61.77,0,0,0,42.62,20.14,63.18,63.18,0,0,0,66.24-63.11V635.16A63.19,63.19,0,0,0,2100.19,572.05Zm10.08,220.43a28.08,28.08,0,0,1-56.16,0V656.19a28.08,28.08,0,0,1,28.08-28.05h0a28.08,28.08,0,0,1,28.08,28.08Z" transform="translate(-548.39 -451.45)"/><path class="cls-13" d="M1237.64,572a84.34,84.34,0,0,0-87.49,84.18V790.41c0,45.61,35.4,84.51,81,86.24a84.33,84.33,0,0,0,87.49-84.17v-4a8,8,0,0,0-8-8h-40.11a8,8,0,0,0-8,8v3c0,14.27-10.23,27-24.38,28.83a28.11,28.11,0,0,1-31.78-27.84v-36a4,4,0,0,1,4-4H1266a52.58,52.58,0,0,0,52.58-52.58V658.29C1318.62,612.67,1283.22,573.77,1237.64,572Zm24.83,120.22a4,4,0,0,1-4,4h-48.13a4,4,0,0,1-4-4v-36a28.11,28.11,0,0,1,31.78-27.84c14.15,1.82,24.38,14.55,24.38,28.82Z" transform="translate(-548.39 -451.45)"/><path class="cls-13" d="M917.43,656.22a84.33,84.33,0,0,0-92.08-83.88c-43.67,4-76.39,42-76.39,85.85v1.95a8,8,0,0,0,8,8.05h40.07a8.05,8.05,0,0,0,8-8.05v-3c0-13.28,8.82-25.45,21.8-28.28a28.13,28.13,0,0,1,34.35,27.4v36a4,4,0,0,1-4,4H801.55A52.59,52.59,0,0,0,749,748.86v64.67a63.18,63.18,0,0,0,66.23,63.11,61.76,61.76,0,0,0,42.59-20.1,2,2,0,0,1,3.49,1.36v10.77a8,8,0,0,0,8.05,8H909.4a8,8,0,0,0,8-8ZM861.28,792.48c0,12-7.47,23-18.89,26.62-19.4,6.17-37.26-8.14-37.26-26.62v-36a4,4,0,0,1,4-4h48.09a4,4,0,0,1,4,4v36Z" transform="translate(-548.39 -451.45)"/><path class="cls-13" d="M650.63,572.05A61.8,61.8,0,0,0,608,592.2a2,2,0,0,1-3.45-1.35V580a8,8,0,0,0-8-8H556.42a8,8,0,0,0-8,8V981a8,8,0,0,0,8,8h40.11a8,8,0,0,0,8-8V857.84a2,2,0,0,1,3.45-1.35,61.76,61.76,0,0,0,42.63,20.15,63.19,63.19,0,0,0,66.24-63.11V635.16A63.2,63.2,0,0,0,650.63,572.05Zm10.08,220.43a28.07,28.07,0,0,1-28.94,28.06c-15.37-.46-27.22-13.87-27.22-29.24V657.4c0-15.38,11.85-28.79,27.22-29.25a28.08,28.08,0,0,1,28.94,28.07Z" transform="translate(-548.39 -451.45)"/><path class="cls-13" d="M1110,572h-39.93a8.21,8.21,0,0,0-8.21,8.21v10.2a2.17,2.17,0,0,1-3.77,1.47,61.75,61.75,0,0,0-42.31-19.81,63.2,63.2,0,0,0-66.24,63.11V813.53a63.19,63.19,0,0,0,66.24,63.11,61.76,61.76,0,0,0,42.63-20.15,2,2,0,0,1,3.45,1.35v47a28.09,28.09,0,0,1-55.48,6.24,8,8,0,0,0-7.79-6.24H958a8,8,0,0,0-8,8.66,84.35,84.35,0,0,0,86.82,75.5c45.71-1.59,81.23-40.66,81.23-86.39V580A8,8,0,0,0,1110,572Zm-48.14,220.5a28.08,28.08,0,0,1-56.16,0V656.22a28.08,28.08,0,0,1,56.16,0Z" transform="translate(-548.39 -451.45)"/></svg>